{
  "title": "Sinister 2 {2015} CAM XVID AC3-MRG",
  "uid": 12355584,
  "size": 1313866265,
  "categoryP": "video",
  "categoryS": "movies",
  "magnet": "?xt=urn:btih:38dfdaaf9b3e7fdaf8bc421835a64b12af9442f4&amp;dn=Sinister+2+%7B2015%7D+CAM+XVID+AC3-MRG&amp;tr=udp%3A%2F%2Ftracker.openbittorrent.com%3A80&amp;tr=udp%3A%2F%2Fopen.demonii.com%3A1337&amp;tr=udp%3A%2F%2Ftracker.coppersurfer.tk%3A6969&amp;tr=udp%3A%2F%2Fexodus.desync.com%3A6969",
  "seeders": 241,
  "leechers": 96,
  "uploader": "SaM",
  "files": 10,
  "time": 1441472292,
  "description": "Sinister 2 {2015} CAM XVID AC3-MRG\n\nVideo russians ...:) TY .\nAudio..HaL0...TY.......\n\nFormat : AVI\nFormat/Info : Audio Video Interleave\nFile size : 1.22 GiB\nDuration : 1h 29mn\nOverall bit rate : 1 955 Kbps\nWriting library : VirtualDub build 35491/release\n\nVideo\nID : 0\nFormat : MPEG-4 Visual\nFormat profile : Advanced Simple@L5\nFormat settings, BVOP : 2\nFormat settings, QPel : No\nFormat settings, GMC : No warppoints\nFormat settings, Matrix : Default (H.263)\nMuxing mode : Packed bitstream\nCodec ID : XVID\nCodec ID/Hint : XviD\nDuration : 1h 29mn\nBit rate : 1 818 Kbps\nWidth : 688 pixels\nHeight : 396 pixels\nDisplay aspect ratio : 1.737\nFrame rate : 25.000 fps\nColor space : YUV\nChroma subsampling : 4:2:0\nBit depth : 8 bits\nScan type : Progressive\nCompression mode : Lossy\nBits/(Pixel*Frame) : 0.267\nStream size : 1.14 GiB (93%)\nWriting library : XviD 73\n\nAudio\nID : 1\nFormat : AC-3\nFormat/Info : Audio Coding 3\nMode extension : CM (complete main)\nFormat settings, Endianness : Big\nCodec ID : 2000\nDuration : 1h 29mn\nBit rate mode : Constant\nBit rate : 128 Kbps\nChannel(s) : 2 channels\nChannel positions : Front: L R\nSampling rate : 44.1 KHz\nCompression mode : Lossy\nStream size : 81.9 MiB (7%)\nAlignment : Split accross interleaves\nInterleave, duration : 40 ms (1.00 video frame)\nInterleave, preload duratio : 500 ms\n &lt;a href=&quot;\nhttp://extraimago.com/image/RgX&quot; rel=&quot;nofollow&quot; target=&quot;_NEW&quot;&gt;\nhttp://extraimago.com/image/RgX&lt;/a&gt; &lt;a href=&quot;\nhttp://extraimago.com/image/Rgg&quot; rel=&quot;nofollow&quot; target=&quot;_NEW&quot;&gt;\nhttp://extraimago.com/image/Rgg&lt;/a&gt; &lt;a href=&quot;\nhttp://extraimago.com/image/Rg5&quot; rel=&quot;nofollow&quot; target=&quot;_NEW&quot;&gt;\nhttp://extraimago.com/image/Rg5&lt;/a&gt; &lt;a href=&quot;\nhttp://extraimago.com/image/RgD&quot; rel=&quot;nofollow&quot; target=&quot;_NEW&quot;&gt;\nhttp://extraimago.com/image/RgD&lt;/a&gt; &lt;a href=&quot;\nhttp://extraimago.com/image/RgF&quot; rel=&quot;nofollow&quot; target=&quot;_NEW&quot;&gt;\nhttp://extraimago.com/image/RgF&lt;/a&gt; &lt;a href=&quot;\nhttp://extraimago.com/image/RgH&quot; rel=&quot;nofollow&quot; target=&quot;_NEW&quot;&gt;\nhttp://extraimago.com/image/RgH&lt;/a&gt;",
  "parsed": {
    "xt": "urn:btih:38dfdaaf9b3e7fdaf8bc421835a64b12af9442f4",
    "dn": "Sinister 2 {2015} CAM XVID AC3-MRG",
    "tr": [
      "udp://exodus.desync.com:6969",
      "udp://open.demonii.com:1337",
      "udp://tracker.coppersurfer.tk:6969",
      "udp://tracker.openbittorrent.com:80"
    ],
    "infoHash": "38dfdaaf9b3e7fdaf8bc421835a64b12af9442f4",
    "infoHashBuffer": {
      "type": "Buffer",
      "data": [
        56,
        223,
        218,
        175,
        155,
        62,
        127,
        218,
        248,
        188,
        66,
        24,
        53,
        166,
        75,
        18,
        175,
        148,
        66,
        244
      ]
    },
    "name": "Sinister 2 {2015} CAM XVID AC3-MRG",
    "announce": [
      "udp://exodus.desync.com:6969",
      "udp://open.demonii.com:1337",
      "udp://tracker.coppersurfer.tk:6969",
      "udp://tracker.openbittorrent.com:80"
    ],
    "urlList": []
  },
  "previous": 93,
  "peers": 20,
  "last_updated": "2016-12-26T21:31:09.399Z"
}